<svg id="visual" viewBox="0 0 960 540" width="960" height="540" xmlns="http://www.w3.org/2000/svg" xmlns:xlink="http://www.w3.org/1999/xlink" version="1.1"><rect x="0" y="0" width="960" height="540" fill="#000321"></rect><defs><linearGradient id="grad1_0" x1="43.8%" y1="100%" x2="100%" y2="0%"><stop offset="14.444444444444446%" stop-color="#3bbaff" stop-opacity="1"></stop><stop offset="85.55555555555554%" stop-color="#3bbaff" stop-opacity="1"></stop></linearGradient></defs><defs><linearGradient id="grad1_1" x1="43.8%" y1="100%" x2="100%" y2="0%"><stop offset="14.444444444444446%" stop-color="#3bbaff" stop-opacity="1"></stop><stop offset="85.55555555555554%" stop-color="#3998d7" stop-opacity="1"></stop></linearGradient></defs><defs><linearGradient id="grad1_2" x1="43.8%" y1="100%" x2="100%" y2="0%"><stop offset="14.444444444444446%" stop-color="#3377b0" stop-opacity="1"></stop><stop offset="85.55555555555554%" stop-color="#3998d7" stop-opacity="1"></stop></linearGradient></defs><defs><linearGradient id="grad1_3" x1="43.8%" y1="100%" x2="100%" y2="0%"><stop offset="14.444444444444446%" stop-color="#3377b0" stop-opacity="1"></stop><stop offset="85.55555555555554%" stop-color="#2a5889" stop-opacity="1"></stop></linearGradient></defs><defs><linearGradient id="grad1_4" x1="43.8%" y1="100%" x2="100%" y2="0%"><stop offset="14.444444444444446%" stop-color="#1e3c64" stop-opacity="1"></stop><stop offset="85.55555555555554%" stop-color="#2a5889" stop-opacity="1"></stop></linearGradient></defs><defs><linearGradient id="grad1_5" x1="43.8%" y1="100%" x2="100%" y2="0%"><stop offset="14.444444444444446%" stop-color="#1e3c64" stop-opacity="1"></stop><stop offset="85.55555555555554%" stop-color="#102241" stop-opacity="1"></stop></linearGradient></defs><defs><linearGradient id="grad1_6" x1="43.8%" y1="100%" x2="100%" y2="0%"><stop offset="14.444444444444446%" stop-color="#000321" stop-opacity="1"></stop><stop offset="85.55555555555554%" stop-color="#102241" stop-opacity="1"></stop></linearGradient></defs><defs><linearGradient id="grad2_0" x1="0%" y1="100%" x2="56.3%" y2="0%"><stop offset="14.444444444444446%" stop-color="#3bbaff" stop-opacity="1"></stop><stop offset="85.55555555555554%" stop-color="#3bbaff" stop-opacity="1"></stop></linearGradient></defs><defs><linearGradient id="grad2_1" x1="0%" y1="100%" x2="56.3%" y2="0%"><stop offset="14.444444444444446%" stop-color="#3998d7" stop-opacity="1"></stop><stop offset="85.55555555555554%" stop-color="#3bbaff" stop-opacity="1"></stop></linearGradient></defs><defs><linearGradient id="grad2_2" x1="0%" y1="100%" x2="56.3%" y2="0%"><stop offset="14.444444444444446%" stop-color="#3998d7" stop-opacity="1"></stop><stop offset="85.55555555555554%" stop-color="#3377b0" stop-opacity="1"></stop></linearGradient></defs><defs><linearGradient id="grad2_3" x1="0%" y1="100%" x2="56.3%" y2="0%"><stop offset="14.444444444444446%" stop-color="#2a5889" stop-opacity="1"></stop><stop offset="85.55555555555554%" stop-color="#3377b0" stop-opacity="1"></stop></linearGradient></defs><defs><linearGradient id="grad2_4" x1="0%" y1="100%" x2="56.3%" y2="0%"><stop offset="14.444444444444446%" stop-color="#2a5889" stop-opacity="1"></stop><stop offset="85.55555555555554%" stop-color="#1e3c64" stop-opacity="1"></stop></linearGradient></defs><defs><linearGradient id="grad2_5" x1="0%" y1="100%" x2="56.3%" y2="0%"><stop offset="14.444444444444446%" stop-color="#102241" stop-opacity="1"></stop><stop offset="85.55555555555554%" stop-color="#1e3c64" stop-opacity="1"></stop></linearGradient></defs><defs><linearGradient id="grad2_6" x1="0%" y1="100%" x2="56.3%" y2="0%"><stop offset="14.444444444444446%" stop-color="#102241" stop-opacity="1"></stop><stop offset="85.55555555555554%" stop-color="#000321" stop-opacity="1"></stop></linearGradient></defs><g transform="translate(960, 540)"><path d="M-405 0C-373.3 -44.3 -341.7 -88.6 -320.6 -132.8C-299.5 -177 -289 -221 -264.5 -264.5C-239.9 -307.9 -201.4 -350.8 -155 -374.2C-108.6 -397.5 -54.3 -401.3 0 -405L0 0Z" fill="#081530"></path><path d="M-347.1 0C-320 -38 -292.9 -76 -274.8 -113.8C-256.7 -151.7 -247.7 -189.4 -226.7 -226.7C-205.7 -263.9 -172.6 -300.7 -132.8 -320.7C-93.1 -340.7 -46.5 -343.9 0 -347.1L0 0Z" fill="#172e52"></path><path d="M-289.3 0C-266.7 -31.7 -244.1 -63.3 -229 -94.9C-213.9 -126.4 -206.4 -157.8 -188.9 -188.9C-171.4 -219.9 -143.9 -250.6 -110.7 -267.3C-77.6 -283.9 -38.8 -286.6 0 -289.3L0 0Z" fill="#254a76"></path><path d="M-231.4 0C-213.3 -25.3 -195.2 -50.6 -183.2 -75.9C-171.1 -101.1 -165.1 -126.3 -151.1 -151.1C-137.1 -176 -115.1 -200.5 -88.6 -213.8C-62 -227.1 -31 -229.3 0 -231.4L0 0Z" fill="#2f689c"></path><path d="M-173.6 0C-160 -19 -146.4 -38 -137.4 -56.9C-128.4 -75.8 -123.8 -94.7 -113.3 -113.3C-102.8 -132 -86.3 -150.4 -66.4 -160.4C-46.5 -170.4 -23.3 -172 0 -173.6L0 0Z" fill="#3787c3"></path><path d="M-115.7 0C-106.7 -12.7 -97.6 -25.3 -91.6 -37.9C-85.6 -50.6 -82.6 -63.1 -75.6 -75.6C-68.6 -88 -57.5 -100.2 -44.3 -106.9C-31 -113.6 -15.5 -114.6 0 -115.7L0 0Z" fill="#3ba9eb"></path><path d="M-57.9 0C-53.3 -6.3 -48.8 -12.7 -45.8 -19C-42.8 -25.3 -41.3 -31.6 -37.8 -37.8C-34.3 -44 -28.8 -50.1 -22.1 -53.5C-15.5 -56.8 -7.8 -57.3 0 -57.9L0 0Z" fill="#3bbaff"></path></g><g transform="translate(0, 0)"><path d="M405 0C381 43.6 357.1 87.1 342.8 142C328.5 196.8 323.8 263 286.4 286.4C248.9 309.8 178.7 290.4 125.5 303C72.3 315.7 36.2 360.3 0 405L0 0Z" fill="#081530"></path><path d="M347.1 0C326.6 37.3 306.1 74.7 293.8 121.7C281.5 168.7 277.6 225.4 245.5 245.5C213.4 265.5 153.2 248.9 107.6 259.7C62 270.6 31 308.9 0 347.1L0 0Z" fill="#172e52"></path><path d="M289.3 0C272.2 31.1 255 62.2 244.8 101.4C234.6 140.6 231.3 187.8 204.6 204.6C177.8 221.3 127.7 207.4 89.7 216.5C51.7 225.5 25.8 257.4 0 289.3L0 0Z" fill="#254a76"></path><path d="M231.4 0C217.7 24.9 204 49.8 195.9 81.1C187.7 112.5 185 150.3 163.6 163.6C142.3 177 102.1 165.9 71.7 173.2C41.3 180.4 20.7 205.9 0 231.4L0 0Z" fill="#2f689c"></path><path d="M173.6 0C163.3 18.7 153 37.3 146.9 60.8C140.8 84.4 138.8 112.7 122.7 122.7C106.7 132.8 76.6 124.5 53.8 129.9C31 135.3 15.5 154.4 0 173.6L0 0Z" fill="#3787c3"></path><path d="M115.7 0C108.9 12.4 102 24.9 97.9 40.6C93.8 56.2 92.5 75.1 81.8 81.8C71.1 88.5 51.1 83 35.9 86.6C20.7 90.2 10.3 103 0 115.7L0 0Z" fill="#3ba9eb"></path><path d="M57.9 0C54.4 6.2 51 12.4 49 20.3C46.9 28.1 46.3 37.6 40.9 40.9C35.6 44.3 25.5 41.5 17.9 43.3C10.3 45.1 5.2 51.5 0 57.9L0 0Z" fill="#3bbaff"></path></g></svg>