<svg id="visual" viewBox="0 0 960 540" width="960" height="540" xmlns="http://www.w3.org/2000/svg" xmlns:xlink="http://www.w3.org/1999/xlink" version="1.1"><path d="M0 44L12.3 43.2C24.7 42.3 49.3 40.7 74 40.7C98.7 40.7 123.3 42.3 148 44.2C172.7 46 197.3 48 221.8 49C246.3 50 270.7 50 295.2 48.2C319.7 46.3 344.3 42.7 369 42.7C393.7 42.7 418.3 46.3 443 47.2C467.7 48 492.3 46 517 45C541.7 44 566.3 44 591 43.2C615.7 42.3 640.3 40.7 664.8 42.5C689.3 44.3 713.7 49.7 738.2 49.7C762.7 49.7 787.3 44.3 812 42.5C836.7 40.7 861.3 42.3 886 42.3C910.7 42.3 935.3 40.7 947.7 39.8L960 39L960 0L947.7 0C935.3 0 910.7 0 886 0C861.3 0 836.7 0 812 0C787.3 0 762.7 0 738.2 0C713.7 0 689.3 0 664.8 0C640.3 0 615.7 0 591 0C566.3 0 541.7 0 517 0C492.3 0 467.7 0 443 0C418.3 0 393.7 0 369 0C344.3 0 319.7 0 295.2 0C270.7 0 246.3 0 221.8 0C197.3 0 172.7 0 148 0C123.3 0 98.7 0 74 0C49.3 0 24.7 0 12.3 0L0 0Z" fill="#0069bb"></path><path d="M0 87L12.3 86.2C24.7 85.3 49.3 83.7 74 83.7C98.7 83.7 123.3 85.3 148 86.2C172.7 87 197.3 87 221.8 88C246.3 89 270.7 91 295.2 89.3C319.7 87.7 344.3 82.3 369 82.3C393.7 82.3 418.3 87.7 443 88.5C467.7 89.3 492.3 85.7 517 84.7C541.7 83.7 566.3 85.3 591 86.2C615.7 87 640.3 87 664.8 87C689.3 87 713.7 87 738.2 84.3C762.7 81.7 787.3 76.3 812 74.7C836.7 73 861.3 75 886 75C910.7 75 935.3 73 947.7 72L960 71L960 37L947.7 37.8C935.3 38.7 910.7 40.3 886 40.3C861.3 40.3 836.7 38.7 812 40.5C787.3 42.3 762.7 47.7 738.2 47.7C713.7 47.7 689.3 42.3 664.8 40.5C640.3 38.7 615.7 40.3 591 41.2C566.3 42 541.7 42 517 43C492.3 44 467.7 46 443 45.2C418.3 44.3 393.7 40.7 369 40.7C344.3 40.7 319.7 44.3 295.2 46.2C270.7 48 246.3 48 221.8 47C197.3 46 172.7 44 148 42.2C123.3 40.3 98.7 38.7 74 38.7C49.3 38.7 24.7 40.3 12.3 41.2L0 42Z" fill="#0088f3"></path><path d="M0 147L12.3 145.2C24.7 143.3 49.3 139.7 74 139.7C98.7 139.7 123.3 143.3 148 147.8C172.7 152.3 197.3 157.7 221.8 160.3C246.3 163 270.7 163 295.2 158.5C319.7 154 344.3 145 369 145C393.7 145 418.3 154 443 154C467.7 154 492.3 145 517 141.3C541.7 137.7 566.3 139.3 591 142C615.7 144.7 640.3 148.3 664.8 151.2C689.3 154 713.7 156 738.2 154.2C762.7 152.3 787.3 146.7 812 145.7C836.7 144.7 861.3 148.3 886 145.7C910.7 143 935.3 134 947.7 129.5L960 125L960 69L947.7 70C935.3 71 910.7 73 886 73C861.3 73 836.7 71 812 72.7C787.3 74.3 762.7 79.7 738.2 82.3C713.7 85 689.3 85 664.8 85C640.3 85 615.7 85 591 84.2C566.3 83.3 541.7 81.7 517 82.7C492.3 83.7 467.7 87.3 443 86.5C418.3 85.7 393.7 80.3 369 80.3C344.3 80.3 319.7 85.7 295.2 87.3C270.7 89 246.3 87 221.8 86C197.3 85 172.7 85 148 84.2C123.3 83.3 98.7 81.7 74 81.7C49.3 81.7 24.7 83.3 12.3 84.2L0 85Z" fill="#51a7ff"></path><path d="M0 212L12.3 212.8C24.7 213.7 49.3 215.3 74 216.2C98.7 217 123.3 217 148 218.8C172.7 220.7 197.3 224.3 221.8 228.8C246.3 233.3 270.7 238.7 295.2 239.5C319.7 240.3 344.3 236.7 369 236.7C393.7 236.7 418.3 240.3 443 236.8C467.7 233.3 492.3 222.7 517 220C541.7 217.3 566.3 222.7 591 228C615.7 233.3 640.3 238.7 664.8 242.2C689.3 245.7 713.7 247.3 738.2 244.7C762.7 242 787.3 235 812 231.5C836.7 228 861.3 228 886 228C910.7 228 935.3 228 947.7 228L960 228L960 123L947.7 127.5C935.3 132 910.7 141 886 143.7C861.3 146.3 836.7 142.7 812 143.7C787.3 144.7 762.7 150.3 738.2 152.2C713.7 154 689.3 152 664.8 149.2C640.3 146.3 615.7 142.7 591 140C566.3 137.3 541.7 135.7 517 139.3C492.3 143 467.7 152 443 152C418.3 152 393.7 143 369 143C344.3 143 319.7 152 295.2 156.5C270.7 161 246.3 161 221.8 158.3C197.3 155.7 172.7 150.3 148 145.8C123.3 141.3 98.7 137.7 74 137.7C49.3 137.7 24.7 141.3 12.3 143.2L0 145Z" fill="#69b3ff"></path><path d="M0 330L12.3 332.8C24.7 335.7 49.3 341.3 74 345.8C98.7 350.3 123.3 353.7 148 360.8C172.7 368 197.3 379 221.8 382.7C246.3 386.3 270.7 382.7 295.2 380.8C319.7 379 344.3 379 369 379.8C393.7 380.7 418.3 382.3 443 374.2C467.7 366 492.3 348 517 345.3C541.7 342.7 566.3 355.3 591 363.5C615.7 371.7 640.3 375.3 664.8 377.2C689.3 379 713.7 379 738.2 373.7C762.7 368.3 787.3 357.7 812 354C836.7 350.3 861.3 353.7 886 353.7C910.7 353.7 935.3 350.3 947.7 348.7L960 347L960 226L947.7 226C935.3 226 910.7 226 886 226C861.3 226 836.7 226 812 229.5C787.3 233 762.7 240 738.2 242.7C713.7 245.3 689.3 243.7 664.8 240.2C640.3 236.7 615.7 231.3 591 226C566.3 220.7 541.7 215.3 517 218C492.3 220.7 467.7 231.3 443 234.8C418.3 238.3 393.7 234.7 369 234.7C344.3 234.7 319.7 238.3 295.2 237.5C270.7 236.7 246.3 231.3 221.8 226.8C197.3 222.3 172.7 218.7 148 216.8C123.3 215 98.7 215 74 214.2C49.3 213.3 24.7 211.7 12.3 210.8L0 210Z" fill="#51a7ff"></path><path d="M0 492L12.3 492C24.7 492 49.3 492 74 493C98.7 494 123.3 496 148 496C172.7 496 197.3 494 221.8 491.3C246.3 488.7 270.7 485.3 295.2 486.3C319.7 487.3 344.3 492.7 369 495.3C393.7 498 418.3 498 443 497C467.7 496 492.3 494 517 492.2C541.7 490.3 566.3 488.7 591 487.8C615.7 487 640.3 487 664.8 488.8C689.3 490.7 713.7 494.3 738.2 493.5C762.7 492.7 787.3 487.3 812 484.7C836.7 482 861.3 482 886 484.7C910.7 487.3 935.3 492.7 947.7 495.3L960 498L960 345L947.7 346.7C935.3 348.3 910.7 351.7 886 351.7C861.3 351.7 836.7 348.3 812 352C787.3 355.7 762.7 366.3 738.2 371.7C713.7 377 689.3 377 664.8 375.2C640.3 373.3 615.7 369.7 591 361.5C566.3 353.3 541.7 340.7 517 343.3C492.3 346 467.7 364 443 372.2C418.3 380.3 393.7 378.7 369 377.8C344.3 377 319.7 377 295.2 378.8C270.7 380.7 246.3 384.3 221.8 380.7C197.3 377 172.7 366 148 358.8C123.3 351.7 98.7 348.3 74 343.8C49.3 339.3 24.7 333.7 12.3 330.8L0 328Z" fill="#0088f3"></path><path d="M0 541L12.3 541C24.7 541 49.3 541 74 541C98.7 541 123.3 541 148 541C172.7 541 197.3 541 221.8 541C246.3 541 270.7 541 295.2 541C319.7 541 344.3 541 369 541C393.7 541 418.3 541 443 541C467.7 541 492.3 541 517 541C541.7 541 566.3 541 591 541C615.7 541 640.3 541 664.8 541C689.3 541 713.7 541 738.2 541C762.7 541 787.3 541 812 541C836.7 541 861.3 541 886 541C910.7 541 935.3 541 947.7 541L960 541L960 496L947.7 493.3C935.3 490.7 910.7 485.3 886 482.7C861.3 480 836.7 480 812 482.7C787.3 485.3 762.7 490.7 738.2 491.5C713.7 492.3 689.3 488.7 664.8 486.8C640.3 485 615.7 485 591 485.8C566.3 486.7 541.7 488.3 517 490.2C492.3 492 467.7 494 443 495C418.3 496 393.7 496 369 493.3C344.3 490.7 319.7 485.3 295.2 484.3C270.7 483.3 246.3 486.7 221.8 489.3C197.3 492 172.7 494 148 494C123.3 494 98.7 492 74 491C49.3 490 24.7 490 12.3 490L0 490Z" fill="#0069bb"></path></svg>